<?xml version="1.0" standalone="no"?>
<!DOCTYPE svg PUBLIC "-//W3C//DTD SVG 20010904//EN"
 "http://www.w3.org/TR/2001/REC-SVG-20010904/DTD/svg10.dtd">
<svg version="1.0" xmlns="http://www.w3.org/2000/svg"
 width="646.000000pt" height="646.000000pt" viewBox="0 0 646.000000 646.000000"
 preserveAspectRatio="xMidYMid meet">

<g transform="translate(0.000000,646.000000) scale(0.100000,-0.100000)" stroke="none">
<path d="M262 6165 c8 -8 223 -66 575 -155 171 -43 347 -91 390 -105 108 -36
301 -132 318 -158 39 -61 82 -278 100 -509 l7 -86 -58 -12 c-473 -93 -902
-341 -1230 -710 -51 -57 -92 -105 -91 -107 2 -1 108 51 237 116 456 228 733
326 1038 366 184 24 171 28 244 -67 176 -232 355 -373 558 -440 81 -26 115
-31 226 -36 141 -5 236 8 364 51 75 25 74 22 29 137 -84 210 -259 400 -465
503 -68 34 -155 67 -219 82 -29 6 -28 5 11 -23 45 -33 103 -90 139 -137 61
-79 115 -229 115 -323 l0 -43 -47 6 c-190 27 -341 143 -438 335 -72 143 -129
390 -142 617 l-6 115 24 -7 c13 -4 93 -34 177 -66 386 -148 630 -262 792 -370
112 -74 266 -224 340 -329 47 -68 51 -72 45 -40 -22 117 -84 259 -153 352 -87
117 -266 264 -444 362 -38 21 -68 42 -68 48 0 18 385 3 545 -22 545 -83 1095
-266 1460 -487 268 -163 467 -366 550 -562 33 -78 55 -178 55 -249 0 -43 9
-71 50 -151 93 -187 209 -370 329 -521 118 -148 318 -333 413 -381 60 -31 37
-44 -75 -43 -114 1 -225 30 -341 88 l-84 42 15 -50 c59 -204 195 -349 427
-456 47 -22 86 -44 86 -49 0 -18 -124 -122 -175 -146 -117 -58 -222 -56 -353
5 -96 45 -176 106 -320 244 -128 123 -129 124 -200 140 -91 20 -283 21 -389 1
-214 -41 -398 -137 -530 -279 -101 -107 -154 -219 -175 -366 -10 -70 -9 -83
12 -146 55 -168 180 -366 302 -480 60 -55 201 -154 219 -154 35 0 -25 -106
-92 -164 -59 -51 -108 -75 -186 -91 -87 -18 -162 -10 -167 19 -2 12 -9 53 -15
92 -52 348 -357 656 -711 720 -98 17 -171 17 -266 -1 -43 -8 -80 -13 -82 -10
-6 5 50 80 185 247 57 71 103 130 103 132 0 7 -117 -60 -185 -106 -102 -69
-177 -133 -261 -220 -216 -225 -328 -485 -390 -908 -9 -63 -19 -118 -23 -122
-15 -17 -200 260 -282 425 -96 191 -179 450 -214 672 -23 142 -29 453 -13 593
8 61 12 112 9 112 -2 0 -40 -26 -85 -57 -44 -32 -146 -123 -225 -202 l-144
-144 6 139 c23 498 197 912 518 1232 51 50 89 92 85 92 -17 0 -215 -107 -295
-160 -257 -169 -440 -370 -560 -615 -68 -138 -93 -208 -127 -355 -62 -273 -51
-600 31 -925 33 -131 85 -295 93 -295 4 0 16 28 26 61 28 90 103 233 171 328
53 74 226 251 245 251 4 0 7 -60 8 -132 2 -262 68 -511 212 -800 187 -373 494
-723 833 -949 56 -37 103 -66 105 -64 2 1 -8 45 -22 96 -114 419 -96 898 49
1346 25 75 52 146 60 159 34 52 270 70 397 30 123 -39 261 -132 341 -231 64
-79 124 -202 143 -295 19 -89 14 -248 -10 -325 -8 -27 -14 -50 -13 -52 11 -11
212 -24 297 -20 309 18 538 158 672 412 20 39 55 88 78 110 92 88 171 211 185
289 l7 37 -61 -40 c-88 -56 -151 -76 -246 -76 -74 0 -85 3 -131 32 -63 41
-182 161 -230 232 -90 134 -104 225 -52 349 25 61 45 90 97 142 181 180 431
210 698 85 131 -62 235 -144 290 -229 42 -65 37 -86 -60 -230 -47 -72 -85
-131 -83 -133 7 -8 306 71 429 113 411 141 678 353 786 626 34 84 57 189 66
303 l7 81 -77 58 c-323 243 -644 610 -834 951 -60 107 -61 111 -61 186 0 103
-38 249 -91 349 -200 375 -694 692 -1396 895 -534 155 -1150 235 -1584 205
-95 -6 -177 -13 -181 -16 -5 -3 -59 17 -121 44 -404 178 -1161 345 -1667 367
-69 3 -138 8 -154 11 -16 2 -27 2 -24 -1z"/>
<path d="M3626 4789 c39 -44 186 -130 394 -232 270 -132 307 -161 379 -293
110 -201 191 -298 288 -345 38 -18 70 -23 182 -28 124 -6 140 -9 182 -33 26
-15 60 -43 78 -63 37 -43 39 -34 10 78 -26 107 -105 266 -169 344 -99 119
-270 227 -466 292 -49 17 -188 57 -310 90 -266 73 -370 108 -488 167 -49 24
-91 44 -94 44 -3 0 3 -9 14 -21z"/>
<path d="M1205 4273 c-258 -57 -455 -116 -650 -193 -233 -93 -227 -89 -278
-177 -62 -106 -139 -271 -171 -368 -195 -593 -84 -1228 301 -1722 35 -45 68
-85 73 -88 5 -3 -8 32 -30 77 -202 434 -225 975 -61 1440 144 406 438 775 792
993 69 42 73 49 24 38z"/>
</g>
</svg>
